<svg width="295" height="153" viewBox="0 0 295 153" fill="none" xmlns="http://www.w3.org/2000/svg">
<g filter="url(#filter0_d_1626_3578)">
<mask id="path-1-inside-1_1626_3578" fill="white">
<path d="M20 14H275V117C275 122.523 270.523 127 265 127H30C24.4772 127 20 122.523 20 117V14Z"/>
</mask>
<path d="M20 14H275V117C275 122.523 270.523 127 265 127H30C24.4772 127 20 122.523 20 117V14Z" fill="white"/>
<path d="M46.28 49V37.8H47.736V42.776H52.952V37.8H54.408V49H52.952V44.088H47.736V49H46.28ZM59.9435 49.192C58.8022 49.192 57.9062 48.8293 57.2555 48.104C56.6155 47.3787 56.2955 46.4507 56.2955 45.32C56.2955 44.2 56.6262 43.272 57.2875 42.536C57.9595 41.8 58.8555 41.432 59.9755 41.432C60.5515 41.432 61.0688 41.5653 61.5275 41.832C61.9862 42.0987 62.3328 42.4613 62.5675 42.92V41.624H63.9435V49H62.5675V47.704C62.3328 48.152 61.9755 48.5147 61.4955 48.792C61.0155 49.0587 60.4982 49.192 59.9435 49.192ZM60.1355 47.944C60.9142 47.944 61.5222 47.6933 61.9595 47.192C62.4075 46.68 62.6315 46.056 62.6315 45.32C62.6315 44.5733 62.4075 43.9493 61.9595 43.448C61.5222 42.936 60.9142 42.68 60.1355 42.68C59.3888 42.68 58.7915 42.9307 58.3435 43.432C57.8955 43.9227 57.6715 44.552 57.6715 45.32C57.6715 46.088 57.8955 46.7173 58.3435 47.208C58.7915 47.6987 59.3888 47.944 60.1355 47.944ZM68.4366 49L65.1886 41.624H66.6766L68.9966 47.144L71.3326 41.624H72.8206L69.5726 49H68.4366ZM80.3065 44.888C80.3065 45.0907 80.2905 45.368 80.2585 45.72H74.5465C74.5572 46.424 74.7705 46.9787 75.1865 47.384C75.6025 47.7787 76.1625 47.976 76.8665 47.976C77.8478 47.976 78.4985 47.6133 78.8185 46.888H80.2105C80.0825 47.5707 79.7092 48.1253 79.0905 48.552C78.4718 48.9787 77.7305 49.192 76.8665 49.192C75.7358 49.192 74.8345 48.8453 74.1625 48.152C73.5012 47.448 73.1705 46.4987 73.1705 45.304C73.1705 44.1307 73.5012 43.192 74.1625 42.488C74.8238 41.784 75.7038 41.432 76.8025 41.432C77.8478 41.432 78.6905 41.752 79.3305 42.392C79.9812 43.032 80.3065 43.864 80.3065 44.888ZM74.5465 44.648H78.9305C78.9305 43.9973 78.7385 43.4853 78.3545 43.112C77.9812 42.7387 77.4585 42.552 76.7865 42.552C76.1252 42.552 75.5918 42.744 75.1865 43.128C74.7918 43.512 74.5785 44.0187 74.5465 44.648ZM91.4331 41.624H92.8251V49.144C92.8251 50.3067 92.4891 51.192 91.8171 51.8C91.2198 52.3333 90.4145 52.6 89.4011 52.6C88.3345 52.6 87.5025 52.344 86.9051 51.832C86.3611 51.3733 86.0838 50.7387 86.0731 49.928H87.4811C87.5345 50.9307 88.1691 51.432 89.3851 51.432C90.7505 51.432 91.4331 50.6373 91.4331 49.048V47.672C90.9425 48.6853 90.0891 49.192 88.8731 49.192C87.9451 49.192 87.2465 48.9093 86.7771 48.344C86.3078 47.768 86.0731 46.9947 86.0731 46.024V41.624H87.4651V45.736C87.4651 46.4507 87.6038 47 87.8811 47.384C88.1691 47.7573 88.6545 47.944 89.3371 47.944C90.0091 47.944 90.5265 47.704 90.8891 47.224C91.2518 46.7333 91.4331 46.1307 91.4331 45.416V41.624ZM98.4793 49.192C97.3059 49.192 96.3726 48.824 95.6793 48.088C94.9859 47.3413 94.6393 46.4133 94.6393 45.304C94.6393 44.1947 94.9859 43.272 95.6793 42.536C96.3726 41.8 97.3059 41.432 98.4793 41.432C99.6419 41.432 100.57 41.8053 101.263 42.552C101.967 43.288 102.319 44.2053 102.319 45.304C102.319 46.4133 101.967 47.3413 101.263 48.088C100.57 48.824 99.6419 49.192 98.4793 49.192ZM96.6713 47.208C97.1193 47.6987 97.7219 47.944 98.4793 47.944C99.2366 47.944 99.8339 47.6987 100.271 47.208C100.709 46.7067 100.927 46.072 100.927 45.304C100.927 44.5467 100.709 43.9227 100.271 43.432C99.8339 42.9307 99.2366 42.68 98.4793 42.68C97.7219 42.68 97.1193 42.9307 96.6713 43.432C96.2339 43.9227 96.0153 44.552 96.0153 45.32C96.0153 46.0773 96.2339 46.7067 96.6713 47.208ZM106.842 49.192C105.989 49.192 105.306 48.936 104.794 48.424C104.293 47.9013 104.042 47.1493 104.042 46.168V41.624H105.434V45.832C105.434 47.272 106.031 47.992 107.226 47.992C107.93 47.992 108.453 47.768 108.794 47.32C109.146 46.8613 109.322 46.3067 109.322 45.656V41.624H110.714V49H109.322V47.656C109.119 48.1253 108.799 48.4987 108.362 48.776C107.935 49.0533 107.429 49.192 106.842 49.192ZM120.241 47.832C120.625 47.832 120.934 47.8053 121.169 47.752V48.984C120.849 49.0587 120.438 49.096 119.937 49.096C119.713 49.096 119.516 49.0853 119.345 49.064C119.185 49.0427 118.993 48.984 118.769 48.888C118.545 48.792 118.358 48.6587 118.209 48.488C118.06 48.3067 117.932 48.056 117.825 47.736C117.718 47.4053 117.665 47.0107 117.665 46.552V42.792H116.337V41.624H117.665V39.288H119.057V41.624H120.913V42.792H119.057V46.248C119.057 46.8987 119.153 47.3253 119.345 47.528C119.537 47.7307 119.836 47.832 120.241 47.832ZM125.819 49.192C124.677 49.192 123.781 48.8293 123.131 48.104C122.491 47.3787 122.171 46.4507 122.171 45.32C122.171 44.2 122.501 43.272 123.163 42.536C123.835 41.8 124.731 41.432 125.851 41.432C126.427 41.432 126.944 41.5653 127.403 41.832C127.861 42.0987 128.208 42.4613 128.443 42.92V41.624H129.819V49H128.443V47.704C128.208 48.152 127.851 48.5147 127.371 48.792C126.891 49.0587 126.373 49.192 125.819 49.192ZM126.011 47.944C126.789 47.944 127.397 47.6933 127.835 47.192C128.283 46.68 128.507 46.056 128.507 45.32C128.507 44.5733 128.283 43.9493 127.835 43.448C127.397 42.936 126.789 42.68 126.011 42.68C125.264 42.68 124.667 42.9307 124.219 43.432C123.771 43.9227 123.547 44.552 123.547 45.32C123.547 46.088 123.771 46.7173 124.219 47.208C124.667 47.6987 125.264 47.944 126.011 47.944ZM138.664 41.624L135.08 45.192L138.664 49H136.824L133.608 45.528V49H132.216V37.8H133.608V44.984L136.872 41.624H138.664ZM146.072 44.888C146.072 45.0907 146.056 45.368 146.024 45.72H140.312C140.323 46.424 140.536 46.9787 140.952 47.384C141.368 47.7787 141.928 47.976 142.632 47.976C143.613 47.976 144.264 47.6133 144.584 46.888H145.976C145.848 47.5707 145.475 48.1253 144.856 48.552C144.237 48.9787 143.496 49.192 142.632 49.192C141.501 49.192 140.6 48.8453 139.928 48.152C139.267 47.448 138.936 46.4987 138.936 45.304C138.936 44.1307 139.267 43.192 139.928 42.488C140.589 41.784 141.469 41.432 142.568 41.432C143.613 41.432 144.456 41.752 145.096 42.392C145.747 43.032 146.072 43.864 146.072 44.888ZM140.312 44.648H144.696C144.696 43.9973 144.504 43.4853 144.12 43.112C143.747 42.7387 143.224 42.552 142.552 42.552C141.891 42.552 141.357 42.744 140.952 43.128C140.557 43.512 140.344 44.0187 140.312 44.648ZM147.872 49V41.624H149.264V42.984C149.467 42.504 149.787 42.1253 150.224 41.848C150.672 41.5707 151.211 41.432 151.84 41.432C153.675 41.432 154.592 42.44 154.592 44.456V49H153.2V45.064C153.2 44.232 153.051 43.6187 152.752 43.224C152.464 42.8293 151.995 42.632 151.344 42.632C150.672 42.632 150.155 42.8507 149.792 43.288C149.44 43.7253 149.264 44.328 149.264 45.096V49H147.872ZM164.022 49.192C162.88 49.192 161.984 48.8293 161.334 48.104C160.694 47.3787 160.374 46.4507 160.374 45.32C160.374 44.2 160.704 43.272 161.366 42.536C162.038 41.8 162.934 41.432 164.054 41.432C164.63 41.432 165.147 41.5653 165.606 41.832C166.064 42.0987 166.411 42.4613 166.646 42.92V41.624H168.022V49H166.646V47.704C166.411 48.152 166.054 48.5147 165.574 48.792C165.094 49.0587 164.576 49.192 164.022 49.192ZM164.214 47.944C164.992 47.944 165.6 47.6933 166.038 47.192C166.486 46.68 166.71 46.056 166.71 45.32C166.71 44.5733 166.486 43.9493 166.038 43.448C165.6 42.936 164.992 42.68 164.214 42.68C163.467 42.68 162.87 42.9307 162.422 43.432C161.974 43.9227 161.75 44.552 161.75 45.32C161.75 46.088 161.974 46.7173 162.422 47.208C162.87 47.6987 163.467 47.944 164.214 47.944ZM177.954 49.176C176.919 49.176 176.06 48.8987 175.378 48.344C174.695 47.7787 174.327 47.0533 174.274 46.168H175.746C175.778 46.6907 175.996 47.1067 176.402 47.416C176.818 47.7253 177.34 47.88 177.97 47.88C178.716 47.88 179.303 47.6507 179.73 47.192C180.156 46.7333 180.37 46.1093 180.37 45.32C180.37 44.552 180.172 43.944 179.778 43.496C179.383 43.048 178.844 42.824 178.162 42.824C177.564 42.824 177.079 42.936 176.706 43.16C176.343 43.3733 176.055 43.7253 175.842 44.216H174.482V38.12H181.106V39.416H175.81V42.76C176.364 42.0133 177.212 41.64 178.354 41.64C179.399 41.64 180.231 41.9707 180.85 42.632C181.468 43.2827 181.778 44.1627 181.778 45.272C181.778 46.4027 181.426 47.336 180.722 48.072C180.018 48.808 179.095 49.176 177.954 49.176ZM46.2 73V65.624H47.592V66.968C47.7413 66.5307 48.008 66.168 48.392 65.88C48.776 65.5813 49.2453 65.432 49.8 65.432C51.0693 65.432 51.8587 65.96 52.168 67.016C52.3387 66.5573 52.6373 66.1787 53.064 65.88C53.4907 65.5813 53.9813 65.432 54.536 65.432C56.3067 65.432 57.192 66.3973 57.192 68.328V73H55.8V68.6C55.8 67.288 55.2667 66.632 54.2 66.632C52.9947 66.632 52.392 67.4747 52.392 69.16V73H51V68.696C51 67.32 50.472 66.632 49.416 66.632C48.84 66.632 48.392 66.8453 48.072 67.272C47.752 67.688 47.592 68.3173 47.592 69.16V73H46.2ZM60.2165 64.36C59.8858 64.36 59.6138 64.2533 59.4005 64.04C59.1872 63.8267 59.0805 63.56 59.0805 63.24C59.0805 62.92 59.1872 62.6533 59.4005 62.44C59.6138 62.216 59.8858 62.104 60.2165 62.104C60.5365 62.104 60.8032 62.216 61.0165 62.44C61.2298 62.6533 61.3365 62.92 61.3365 63.24C61.3365 63.56 61.2298 63.8267 61.0165 64.04C60.8032 64.2533 60.5365 64.36 60.2165 64.36ZM59.5125 73V65.624H60.9045V73H59.5125ZM63.3094 73V65.624H64.7014V66.984C64.904 66.504 65.224 66.1253 65.6614 65.848C66.1094 65.5707 66.648 65.432 67.2774 65.432C69.112 65.432 70.0294 66.44 70.0294 68.456V73H68.6374V69.064C68.6374 68.232 68.488 67.6187 68.1894 67.224C67.9014 66.8293 67.432 66.632 66.7814 66.632C66.1094 66.632 65.592 66.8507 65.2294 67.288C64.8774 67.7253 64.7014 68.328 64.7014 69.096V73H63.3094ZM75.0763 73.192C74.2229 73.192 73.5403 72.936 73.0283 72.424C72.5269 71.9013 72.2763 71.1493 72.2763 70.168V65.624H73.6683V69.832C73.6683 71.272 74.2656 71.992 75.4603 71.992C76.1643 71.992 76.6869 71.768 77.0283 71.32C77.3803 70.8613 77.5563 70.3067 77.5563 69.656V65.624H78.9483V73H77.5563V71.656C77.3536 72.1253 77.0336 72.4987 76.5963 72.776C76.1696 73.0533 75.6629 73.192 75.0763 73.192ZM84.4286 71.832C84.8126 71.832 85.122 71.8053 85.3566 71.752V72.984C85.0366 73.0587 84.626 73.096 84.1246 73.096C83.9006 73.096 83.7033 73.0853 83.5326 73.064C83.3726 73.0427 83.1806 72.984 82.9566 72.888C82.7326 72.792 82.546 72.6587 82.3966 72.488C82.2473 72.3067 82.1193 72.056 82.0126 71.736C81.906 71.4053 81.8526 71.0107 81.8526 70.552V66.792H80.5246V65.624H81.8526V63.288H83.2446V65.624H85.1006V66.792H83.2446V70.248C83.2446 70.8987 83.3406 71.3253 83.5326 71.528C83.7246 71.7307 84.0233 71.832 84.4286 71.832ZM93.494 68.888C93.494 69.0907 93.478 69.368 93.446 69.72H87.734C87.7447 70.424 87.958 70.9787 88.374 71.384C88.79 71.7787 89.35 71.976 90.054 71.976C91.0353 71.976 91.686 71.6133 92.006 70.888H93.398C93.27 71.5707 92.8967 72.1253 92.278 72.552C91.6593 72.9787 90.918 73.192 90.054 73.192C88.9233 73.192 88.022 72.8453 87.35 72.152C86.6887 71.448 86.358 70.4987 86.358 69.304C86.358 68.1307 86.6887 67.192 87.35 66.488C88.0113 65.784 88.8913 65.432 89.99 65.432C91.0353 65.432 91.878 65.752 92.518 66.392C93.1687 67.032 93.494 67.864 93.494 68.888ZM87.734 68.648H92.118C92.118 67.9973 91.926 67.4853 91.542 67.112C91.1687 66.7387 90.646 66.552 89.974 66.552C89.3127 66.552 88.7793 66.744 88.374 67.128C87.9793 67.512 87.766 68.0187 87.734 68.648ZM100.989 73L98.2686 65.624H99.7886L101.565 71L103.357 65.624H104.845L106.637 71L108.413 65.624H109.949L107.213 73H106.029L104.093 67.336L102.173 73H100.989ZM113.975 73.192C112.833 73.192 111.937 72.8293 111.287 72.104C110.647 71.3787 110.327 70.4507 110.327 69.32C110.327 68.2 110.657 67.272 111.319 66.536C111.991 65.8 112.887 65.432 114.007 65.432C114.583 65.432 115.1 65.5653 115.559 65.832C116.017 66.0987 116.364 66.4613 116.599 66.92V65.624H117.975V73H116.599V71.704C116.364 72.152 116.007 72.5147 115.527 72.792C115.047 73.0587 114.529 73.192 113.975 73.192ZM114.167 71.944C114.945 71.944 115.553 71.6933 115.991 71.192C116.439 70.68 116.663 70.056 116.663 69.32C116.663 68.5733 116.439 67.9493 115.991 67.448C115.553 66.936 114.945 66.68 114.167 66.68C113.42 66.68 112.823 66.9307 112.375 67.432C111.927 67.9227 111.703 68.552 111.703 69.32C111.703 70.088 111.927 70.7173 112.375 71.208C112.823 71.6987 113.42 71.944 114.167 71.944ZM120.372 73V61.8H121.764V73H120.372ZM130.617 65.624L127.033 69.192L130.617 73H128.777L125.561 69.528V73H124.169V61.8H125.561V68.984L128.825 65.624H130.617ZM133.751 69.624V69.384C133.751 68.8507 133.82 68.424 133.959 68.104C134.098 67.784 134.375 67.4693 134.791 67.16L135.607 66.6C136.322 66.088 136.679 65.4213 136.679 64.6C136.679 64.0667 136.508 63.6347 136.167 63.304C135.836 62.9733 135.383 62.808 134.807 62.808C134.146 62.808 133.618 63.0053 133.223 63.4C132.839 63.7947 132.647 64.36 132.647 65.096H131.191C131.191 63.976 131.516 63.1013 132.167 62.472C132.828 61.8427 133.73 61.528 134.871 61.528C135.916 61.528 136.732 61.8053 137.319 62.36C137.906 62.9147 138.199 63.6453 138.199 64.552C138.199 65.192 138.055 65.7307 137.767 66.168C137.49 66.6053 137.095 67.0267 136.583 67.432L135.895 67.928C135.596 68.152 135.394 68.3653 135.287 68.568C135.191 68.76 135.143 69.0267 135.143 69.368V69.624H133.751ZM135.271 72.776C135.047 73 134.77 73.112 134.439 73.112C134.108 73.112 133.831 73 133.607 72.776C133.383 72.5413 133.271 72.264 133.271 71.944C133.271 71.624 133.383 71.352 133.607 71.128C133.831 70.8933 134.108 70.776 134.439 70.776C134.77 70.776 135.047 70.8933 135.271 71.128C135.495 71.352 135.607 71.624 135.607 71.944C135.607 72.264 135.495 72.5413 135.271 72.776Z" fill="#1D1445"/>
<path d="M46.12 103V93.2H47.352L50.712 101.194L54.072 93.2H55.304V103H54.072V95.846L51.202 103H50.222L47.352 95.804V103H46.12ZM60.3217 103.168C59.295 103.168 58.4784 102.846 57.8717 102.202C57.265 101.549 56.9617 100.737 56.9617 99.766C56.9617 98.7953 57.265 97.988 57.8717 97.344C58.4784 96.7 59.295 96.378 60.3217 96.378C61.339 96.378 62.151 96.7047 62.7577 97.358C63.3737 98.002 63.6817 98.8047 63.6817 99.766C63.6817 100.737 63.3737 101.549 62.7577 102.202C62.151 102.846 61.339 103.168 60.3217 103.168ZM58.7397 101.432C59.1317 101.861 59.659 102.076 60.3217 102.076C60.9844 102.076 61.507 101.861 61.8897 101.432C62.2724 100.993 62.4637 100.438 62.4637 99.766C62.4637 99.1033 62.2724 98.5573 61.8897 98.128C61.507 97.6893 60.9844 97.47 60.3217 97.47C59.659 97.47 59.1317 97.6893 58.7397 98.128C58.357 98.5573 58.1657 99.108 58.1657 99.78C58.1657 100.443 58.357 100.993 58.7397 101.432ZM65.4195 104.68C65.2329 104.68 65.0742 104.666 64.9435 104.638V104.05C65.0555 104.069 65.2282 104.078 65.4615 104.078C65.8442 104.078 66.1055 103.919 66.2455 103.602C66.3669 103.406 66.4275 103.154 66.4275 102.846C66.3062 102.995 66.1149 103.07 65.8535 103.07C65.5829 103.07 65.3589 102.981 65.1815 102.804C65.0042 102.627 64.9155 102.393 64.9155 102.104C64.9155 101.815 65.0089 101.577 65.1955 101.39C65.3915 101.203 65.6342 101.11 65.9235 101.11C66.2595 101.11 66.5535 101.25 66.8055 101.53C67.0669 101.801 67.1975 102.193 67.1975 102.706C67.1975 103.294 67.0389 103.77 66.7215 104.134C66.4135 104.498 65.9795 104.68 65.4195 104.68ZM74.6428 103V94.404H71.7168V93.2H78.8428V94.404H75.9168V103H74.6428ZM81.5296 103.168C80.7829 103.168 80.1856 102.944 79.7376 102.496C79.2989 102.039 79.0796 101.381 79.0796 100.522V96.546H80.2976V100.228C80.2976 101.488 80.8203 102.118 81.8656 102.118C82.4816 102.118 82.9389 101.922 83.2376 101.53C83.5456 101.129 83.6996 100.643 83.6996 100.074V96.546H84.9176V103H83.6996V101.824C83.5223 102.235 83.2423 102.561 82.8596 102.804C82.4863 103.047 82.0429 103.168 81.5296 103.168ZM87.4449 104.68C87.2583 104.68 87.0996 104.666 86.9689 104.638V104.05C87.0809 104.069 87.2536 104.078 87.4869 104.078C87.8696 104.078 88.1309 103.919 88.2709 103.602C88.3923 103.406 88.4529 103.154 88.4529 102.846C88.3316 102.995 88.1403 103.07 87.8789 103.07C87.6083 103.07 87.3843 102.981 87.2069 102.804C87.0296 102.627 86.9409 102.393 86.9409 102.104C86.9409 101.815 87.0343 101.577 87.2209 101.39C87.4169 101.203 87.6596 101.11 87.9489 101.11C88.2849 101.11 88.5789 101.25 88.8309 101.53C89.0923 101.801 89.2229 102.193 89.2229 102.706C89.2229 103.294 89.0643 103.77 88.7469 104.134C88.4389 104.498 88.0049 104.68 87.4449 104.68ZM97.0462 103L93.7002 93.2H95.0442L97.5502 100.9L99.8882 93.2H100.854L103.178 100.9L105.698 93.2H107.042L103.682 103H102.744L100.364 95.412L97.9982 103H97.0462ZM113.026 99.402C113.026 99.5793 113.012 99.822 112.984 100.13H107.986C107.995 100.746 108.182 101.231 108.546 101.586C108.91 101.931 109.4 102.104 110.016 102.104C110.875 102.104 111.444 101.787 111.724 101.152H112.942C112.83 101.749 112.503 102.235 111.962 102.608C111.421 102.981 110.772 103.168 110.016 103.168C109.027 103.168 108.238 102.865 107.65 102.258C107.071 101.642 106.782 100.811 106.782 99.766C106.782 98.7393 107.071 97.918 107.65 97.302C108.229 96.686 108.999 96.378 109.96 96.378C110.875 96.378 111.612 96.658 112.172 97.218C112.741 97.778 113.026 98.506 113.026 99.402ZM107.986 99.192H111.822C111.822 98.6227 111.654 98.1747 111.318 97.848C110.991 97.5213 110.534 97.358 109.946 97.358C109.367 97.358 108.901 97.526 108.546 97.862C108.201 98.198 108.014 98.6413 107.986 99.192ZM114.761 104.68C114.575 104.68 114.416 104.666 114.285 104.638V104.05C114.397 104.069 114.57 104.078 114.803 104.078C115.186 104.078 115.447 103.919 115.587 103.602C115.709 103.406 115.769 103.154 115.769 102.846C115.648 102.995 115.457 103.07 115.195 103.07C114.925 103.07 114.701 102.981 114.523 102.804C114.346 102.627 114.257 102.393 114.257 102.104C114.257 101.815 114.351 101.577 114.537 101.39C114.733 101.203 114.976 101.11 115.265 101.11C115.601 101.11 115.895 101.25 116.147 101.53C116.409 101.801 116.539 102.193 116.539 102.706C116.539 103.294 116.381 103.77 116.063 104.134C115.755 104.498 115.321 104.68 114.761 104.68ZM123.985 103V94.404H121.059V93.2H128.185V94.404H125.259V103H123.985ZM132.811 96.378C134.417 96.378 135.219 97.26 135.219 99.024V103H134.001V99.556C134.001 98.828 133.871 98.2913 133.609 97.946C133.357 97.6007 132.947 97.428 132.377 97.428C131.789 97.428 131.337 97.6193 131.019 98.002C130.711 98.3847 130.557 98.912 130.557 99.584V103H129.339V93.2H130.557V97.736C130.735 97.316 131.015 96.9847 131.397 96.742C131.789 96.4993 132.261 96.378 132.811 96.378ZM137.689 104.68C137.502 104.68 137.344 104.666 137.213 104.638V104.05C137.325 104.069 137.498 104.078 137.731 104.078C138.114 104.078 138.375 103.919 138.515 103.602C138.636 103.406 138.697 103.154 138.697 102.846C138.576 102.995 138.384 103.07 138.123 103.07C137.852 103.07 137.628 102.981 137.451 102.804C137.274 102.627 137.185 102.393 137.185 102.104C137.185 101.815 137.278 101.577 137.465 101.39C137.661 101.203 137.904 101.11 138.193 101.11C138.529 101.11 138.823 101.25 139.075 101.53C139.336 101.801 139.467 102.193 139.467 102.706C139.467 103.294 139.308 103.77 138.991 104.134C138.683 104.498 138.249 104.68 137.689 104.68ZM145.022 103V93.2H150.594V94.348H146.296V97.89H150.594V99.038H146.296V103H145.022ZM152.404 103V96.546H153.622V98.016C153.743 97.5027 153.981 97.1153 154.336 96.854C154.69 96.5833 155.082 96.448 155.512 96.448C155.764 96.448 155.96 96.4667 156.1 96.504V97.624C155.96 97.596 155.759 97.582 155.498 97.582C154.891 97.582 154.424 97.8247 154.098 98.31C153.78 98.7953 153.622 99.416 153.622 100.172V103H152.404Z" fill="#A8A8A8"/>
<circle cx="169" cy="98" r="3" fill="#A8A8A8"/>
<path d="M182.12 103V93.2H187.692V94.348H183.394V97.554H187.692V98.702H183.394V101.852H187.692V103H182.12ZM191.472 103L188.63 96.546H189.932L191.962 101.376L194.006 96.546H195.308L192.466 103H191.472ZM201.858 99.402C201.858 99.5793 201.844 99.822 201.816 100.13H196.818C196.827 100.746 197.014 101.231 197.378 101.586C197.742 101.931 198.232 102.104 198.848 102.104C199.707 102.104 200.276 101.787 200.556 101.152H201.774C201.662 101.749 201.335 102.235 200.794 102.608C200.253 102.981 199.604 103.168 198.848 103.168C197.859 103.168 197.07 102.865 196.482 102.258C195.903 101.642 195.614 100.811 195.614 99.766C195.614 98.7393 195.903 97.918 196.482 97.302C197.061 96.686 197.831 96.378 198.792 96.378C199.707 96.378 200.444 96.658 201.004 97.218C201.573 97.778 201.858 98.506 201.858 99.402ZM196.818 99.192H200.654C200.654 98.6227 200.486 98.1747 200.15 97.848C199.823 97.5213 199.366 97.358 198.778 97.358C198.199 97.358 197.733 97.526 197.378 97.862C197.033 98.198 196.846 98.6413 196.818 99.192ZM203.433 103V96.546H204.651V98.016C204.772 97.5027 205.01 97.1153 205.365 96.854C205.719 96.5833 206.111 96.448 206.541 96.448C206.793 96.448 206.989 96.4667 207.129 96.504V97.624C206.989 97.596 206.788 97.582 206.527 97.582C205.92 97.582 205.453 97.8247 205.127 98.31C204.809 98.7953 204.651 99.416 204.651 100.172V103H203.433ZM213.111 96.546H214.329V103.126C214.329 104.143 214.035 104.918 213.447 105.45C212.925 105.917 212.22 106.15 211.333 106.15C210.4 106.15 209.672 105.926 209.149 105.478C208.673 105.077 208.431 104.521 208.421 103.812H209.653C209.7 104.689 210.255 105.128 211.319 105.128C212.514 105.128 213.111 104.433 213.111 103.042V101.838C212.682 102.725 211.935 103.168 210.871 103.168C210.059 103.168 209.448 102.921 209.037 102.426C208.627 101.922 208.421 101.245 208.421 100.396V96.546H209.639V100.144C209.639 100.769 209.761 101.25 210.003 101.586C210.255 101.913 210.68 102.076 211.277 102.076C211.865 102.076 212.318 101.866 212.635 101.446C212.953 101.017 213.111 100.489 213.111 99.864V96.546ZM223.028 103.154C222.122 103.154 221.371 102.911 220.774 102.426C220.176 101.931 219.854 101.297 219.808 100.522H221.096C221.124 100.979 221.315 101.343 221.67 101.614C222.034 101.885 222.491 102.02 223.042 102.02C223.695 102.02 224.208 101.819 224.582 101.418C224.955 101.017 225.142 100.471 225.142 99.78C225.142 99.108 224.969 98.576 224.624 98.184C224.278 97.792 223.807 97.596 223.21 97.596C222.687 97.596 222.262 97.694 221.936 97.89C221.618 98.0767 221.366 98.3847 221.18 98.814H219.99V93.48H225.786V94.614H221.152V97.54C221.637 96.8867 222.379 96.56 223.378 96.56C224.292 96.56 225.02 96.8493 225.562 97.428C226.103 97.9973 226.374 98.7673 226.374 99.738C226.374 100.727 226.066 101.544 225.45 102.188C224.834 102.832 224.026 103.154 223.028 103.154ZM235.083 96.378C236.688 96.378 237.491 97.26 237.491 99.024V103H236.273V99.556C236.273 98.828 236.142 98.2913 235.881 97.946C235.629 97.6007 235.218 97.428 234.649 97.428C234.061 97.428 233.608 97.6193 233.291 98.002C232.983 98.3847 232.829 98.912 232.829 99.584V103H231.611V93.2H232.829V97.736C233.006 97.316 233.286 96.9847 233.669 96.742C234.061 96.4993 234.532 96.378 235.083 96.378ZM239.527 103V96.546H240.745V98.016C240.866 97.5027 241.104 97.1153 241.459 96.854C241.813 96.5833 242.205 96.448 242.635 96.448C242.887 96.448 243.083 96.4667 243.223 96.504V97.624C243.083 97.596 242.882 97.582 242.621 97.582C242.014 97.582 241.547 97.8247 241.221 98.31C240.903 98.7953 240.745 99.416 240.745 100.172V103H239.527ZM246.564 103.168C245.752 103.168 245.098 102.967 244.604 102.566C244.118 102.155 243.876 101.656 243.876 101.068H245.08C245.08 101.395 245.22 101.665 245.5 101.88C245.78 102.085 246.153 102.188 246.62 102.188C246.984 102.188 247.273 102.104 247.488 101.936C247.702 101.768 247.81 101.539 247.81 101.25C247.81 100.793 247.6 100.513 247.18 100.41L245.458 99.962C244.534 99.71 244.072 99.1313 244.072 98.226C244.072 97.694 244.296 97.2553 244.744 96.91C245.192 96.5553 245.775 96.378 246.494 96.378C247.278 96.378 247.884 96.56 248.314 96.924C248.752 97.2787 248.972 97.7453 248.972 98.324H247.768C247.768 98.016 247.651 97.7733 247.418 97.596C247.184 97.4093 246.858 97.316 246.438 97.316C246.102 97.316 245.822 97.3953 245.598 97.554C245.383 97.7033 245.276 97.9087 245.276 98.17C245.276 98.6087 245.514 98.884 245.99 98.996L247.6 99.444C248.057 99.5653 248.412 99.78 248.664 100.088C248.916 100.396 249.042 100.746 249.042 101.138C249.042 101.754 248.822 102.249 248.384 102.622C247.945 102.986 247.338 103.168 246.564 103.168Z" fill="#A8A8A8"/>
<path d="M20 12H275V16H20V12ZM275 127H20H275ZM20 127V14V127ZM275 14V127V14Z" fill="url(#paint0_linear_1626_3578)" mask="url(#path-1-inside-1_1626_3578)"/>
</g>
<defs>
<filter id="filter0_d_1626_3578" x="0" y="0" width="295" height="153" filterUnits="userSpaceOnUse" color-interpolation-filters="sRGB">
<feFlood flood-opacity="0" result="BackgroundImageFix"/>
<feColorMatrix in="SourceAlpha" type="matrix" values="0 0 0 0 0 0 0 0 0 0 0 0 0 0 0 0 0 0 127 0" result="hardAlpha"/>
<feOffset dy="6"/>
<feGaussianBlur stdDeviation="10"/>
<feComposite in2="hardAlpha" operator="out"/>
<feColorMatrix type="matrix" values="0 0 0 0 0 0 0 0 0 0 0 0 0 0 0 0 0 0 0.08 0"/>
<feBlend mode="normal" in2="BackgroundImageFix" result="effect1_dropShadow_1626_3578"/>
<feBlend mode="normal" in="SourceGraphic" in2="effect1_dropShadow_1626_3578" result="shape"/>
</filter>
<linearGradient id="paint0_linear_1626_3578" x1="20" y1="14" x2="275" y2="14" gradientUnits="userSpaceOnUse">
<stop stop-color="#3715D7"/>
<stop offset="1" stop-color="#9747FF"/>
</linearGradient>
</defs>
</svg>
