<svg width="280" height="153" viewBox="0 0 280 153" fill="none" xmlns="http://www.w3.org/2000/svg">
<g filter="url(#filter0_d_1626_3606)">
<mask id="path-1-inside-1_1626_3606" fill="white">
<path d="M20 14H260V117C260 122.523 255.523 127 250 127H30C24.4772 127 20 122.523 20 117V14Z"/>
</mask>
<path d="M20 14H260V117C260 122.523 255.523 127 250 127H30C24.4772 127 20 122.523 20 117V14Z" fill="white"/>
<path d="M54.312 37.8L49.112 43.336L54.312 49H52.424L47.736 43.784V49H46.28V37.8H47.736V43.048L52.44 37.8H54.312ZM58.2091 49.192C57.0678 49.192 56.1718 48.8293 55.5211 48.104C54.8811 47.3787 54.5611 46.4507 54.5611 45.32C54.5611 44.2 54.8918 43.272 55.5531 42.536C56.2251 41.8 57.1211 41.432 58.2411 41.432C58.8171 41.432 59.3345 41.5653 59.7931 41.832C60.2518 42.0987 60.5985 42.4613 60.8331 42.92V41.624H62.2091V49H60.8331V47.704C60.5985 48.152 60.2411 48.5147 59.7611 48.792C59.2811 49.0587 58.7638 49.192 58.2091 49.192ZM58.4011 47.944C59.1798 47.944 59.7878 47.6933 60.2251 47.192C60.6731 46.68 60.8971 46.056 60.8971 45.32C60.8971 44.5733 60.6731 43.9493 60.2251 43.448C59.7878 42.936 59.1798 42.68 58.4011 42.68C57.6545 42.68 57.0571 42.9307 56.6091 43.432C56.1611 43.9227 55.9371 44.552 55.9371 45.32C55.9371 46.088 56.1611 46.7173 56.6091 47.208C57.0571 47.6987 57.6545 47.944 58.4011 47.944ZM67.6943 47.832C68.0783 47.832 68.3876 47.8053 68.6223 47.752V48.984C68.3023 49.0587 67.8916 49.096 67.3903 49.096C67.1663 49.096 66.9689 49.0853 66.7983 49.064C66.6383 49.0427 66.4463 48.984 66.2223 48.888C65.9983 48.792 65.8116 48.6587 65.6623 48.488C65.5129 48.3067 65.3849 48.056 65.2783 47.736C65.1716 47.4053 65.1183 47.0107 65.1183 46.552V42.792H63.7903V41.624H65.1183V39.288H66.5103V41.624H68.3663V42.792H66.5103V46.248C66.5103 46.8987 66.6063 47.3253 66.7983 47.528C66.9903 47.7307 67.2889 47.832 67.6943 47.832ZM76.7596 44.888C76.7596 45.0907 76.7436 45.368 76.7116 45.72H70.9996C71.0103 46.424 71.2236 46.9787 71.6396 47.384C72.0556 47.7787 72.6156 47.976 73.3196 47.976C74.301 47.976 74.9516 47.6133 75.2716 46.888H76.6636C76.5356 47.5707 76.1623 48.1253 75.5436 48.552C74.925 48.9787 74.1836 49.192 73.3196 49.192C72.189 49.192 71.2876 48.8453 70.6156 48.152C69.9543 47.448 69.6236 46.4987 69.6236 45.304C69.6236 44.1307 69.9543 43.192 70.6156 42.488C71.277 41.784 72.157 41.432 73.2556 41.432C74.301 41.432 75.1436 41.752 75.7836 42.392C76.4343 43.032 76.7596 43.864 76.7596 44.888ZM70.9996 44.648H75.3836C75.3836 43.9973 75.1916 43.4853 74.8076 43.112C74.4343 42.7387 73.9116 42.552 73.2396 42.552C72.5783 42.552 72.045 42.744 71.6396 43.128C71.245 43.512 71.0316 44.0187 70.9996 44.648ZM78.7429 50.92C78.5295 50.92 78.3482 50.904 78.1989 50.872V50.2C78.3269 50.2213 78.5242 50.232 78.7909 50.232C79.2282 50.232 79.5269 50.0507 79.6869 49.688C79.8255 49.464 79.8949 49.176 79.8949 48.824C79.7562 48.9947 79.5375 49.08 79.2389 49.08C78.9295 49.08 78.6735 48.9787 78.4709 48.776C78.2682 48.5733 78.1669 48.3067 78.1669 47.976C78.1669 47.6453 78.2735 47.3733 78.4869 47.16C78.7109 46.9467 78.9882 46.84 79.3189 46.84C79.7029 46.84 80.0389 47 80.3269 47.32C80.6255 47.6293 80.7749 48.0773 80.7749 48.664C80.7749 49.336 80.5935 49.88 80.2309 50.296C79.8789 50.712 79.3829 50.92 78.7429 50.92ZM91.1398 41.432C92.1958 41.432 93.0544 41.7947 93.7158 42.52C94.3771 43.2347 94.7078 44.168 94.7078 45.32C94.7078 46.4507 94.3664 47.3787 93.6838 48.104C93.0011 48.8293 92.1264 49.192 91.0598 49.192C90.4944 49.192 89.9718 49.0587 89.4918 48.792C89.0224 48.5253 88.6704 48.1627 88.4358 47.704V52.408H87.0438V41.624H88.4358V42.92C88.6704 42.4613 89.0278 42.0987 89.5078 41.832C89.9984 41.5653 90.5424 41.432 91.1398 41.432ZM90.8678 47.944C91.5824 47.944 92.1691 47.6987 92.6278 47.208C93.0864 46.7173 93.3158 46.088 93.3158 45.32C93.3158 44.552 93.0864 43.9227 92.6278 43.432C92.1691 42.9307 91.5824 42.68 90.8678 42.68C90.1318 42.68 89.5291 42.9253 89.0598 43.416C88.6011 43.9067 88.3718 44.5413 88.3718 45.32C88.3718 46.088 88.6011 46.7173 89.0598 47.208C89.5291 47.6987 90.1318 47.944 90.8678 47.944ZM96.4969 49V37.8H97.8889V49H96.4969ZM106.838 44.888C106.838 45.0907 106.822 45.368 106.79 45.72H101.078C101.088 46.424 101.302 46.9787 101.718 47.384C102.134 47.7787 102.694 47.976 103.398 47.976C104.379 47.976 105.03 47.6133 105.35 46.888H106.742C106.614 47.5707 106.24 48.1253 105.622 48.552C105.003 48.9787 104.262 49.192 103.398 49.192C102.267 49.192 101.366 48.8453 100.694 48.152C100.032 47.448 99.7018 46.4987 99.7018 45.304C99.7018 44.1307 100.032 43.192 100.694 42.488C101.355 41.784 102.235 41.432 103.334 41.432C104.379 41.432 105.222 41.752 105.862 42.392C106.512 43.032 106.838 43.864 106.838 44.888ZM101.078 44.648H105.462C105.462 43.9973 105.27 43.4853 104.886 43.112C104.512 42.7387 103.99 42.552 103.318 42.552C102.656 42.552 102.123 42.744 101.718 43.128C101.323 43.512 101.11 44.0187 101.078 44.648ZM111.819 49.192C110.677 49.192 109.781 48.8293 109.131 48.104C108.491 47.3787 108.171 46.4507 108.171 45.32C108.171 44.2 108.501 43.272 109.163 42.536C109.835 41.8 110.731 41.432 111.851 41.432C112.427 41.432 112.944 41.5653 113.403 41.832C113.861 42.0987 114.208 42.4613 114.443 42.92V41.624H115.819V49H114.443V47.704C114.208 48.152 113.851 48.5147 113.371 48.792C112.891 49.0587 112.373 49.192 111.819 49.192ZM112.011 47.944C112.789 47.944 113.397 47.6933 113.835 47.192C114.283 46.68 114.507 46.056 114.507 45.32C114.507 44.5733 114.283 43.9493 113.835 43.448C113.397 42.936 112.789 42.68 112.011 42.68C111.264 42.68 110.667 42.9307 110.219 43.432C109.771 43.9227 109.547 44.552 109.547 45.32C109.547 46.088 109.771 46.7173 110.219 47.208C110.667 47.6987 111.264 47.944 112.011 47.944ZM120.696 49.192C119.768 49.192 119.021 48.9627 118.456 48.504C117.901 48.0347 117.624 47.464 117.624 46.792H119C119 47.1653 119.16 47.4747 119.48 47.72C119.8 47.9547 120.226 48.072 120.76 48.072C121.176 48.072 121.506 47.976 121.752 47.784C121.997 47.592 122.12 47.3307 122.12 47C122.12 46.4773 121.88 46.1573 121.4 46.04L119.432 45.528C118.376 45.24 117.848 44.5787 117.848 43.544C117.848 42.936 118.104 42.4347 118.616 42.04C119.128 41.6347 119.794 41.432 120.616 41.432C121.512 41.432 122.205 41.64 122.696 42.056C123.197 42.4613 123.448 42.9947 123.448 43.656H122.072C122.072 43.304 121.938 43.0267 121.672 42.824C121.405 42.6107 121.032 42.504 120.552 42.504C120.168 42.504 119.848 42.5947 119.592 42.776C119.346 42.9467 119.224 43.1813 119.224 43.48C119.224 43.9813 119.496 44.296 120.04 44.424L121.88 44.936C122.402 45.0747 122.808 45.32 123.096 45.672C123.384 46.024 123.528 46.424 123.528 46.872C123.528 47.576 123.277 48.1413 122.776 48.568C122.274 48.984 121.581 49.192 120.696 49.192ZM131.963 44.888C131.963 45.0907 131.947 45.368 131.915 45.72H126.203C126.213 46.424 126.427 46.9787 126.843 47.384C127.259 47.7787 127.819 47.976 128.523 47.976C129.504 47.976 130.155 47.6133 130.475 46.888H131.867C131.739 47.5707 131.365 48.1253 130.747 48.552C130.128 48.9787 129.387 49.192 128.523 49.192C127.392 49.192 126.491 48.8453 125.819 48.152C125.157 47.448 124.827 46.4987 124.827 45.304C124.827 44.1307 125.157 43.192 125.819 42.488C126.48 41.784 127.36 41.432 128.459 41.432C129.504 41.432 130.347 41.752 130.987 42.392C131.637 43.032 131.963 43.864 131.963 44.888ZM126.203 44.648H130.587C130.587 43.9973 130.395 43.4853 130.011 43.112C129.637 42.7387 129.115 42.552 128.443 42.552C127.781 42.552 127.248 42.744 126.843 43.128C126.448 43.512 126.235 44.0187 126.203 44.648ZM137.809 49V41.624H139.201V43.304C139.34 42.7173 139.612 42.2747 140.017 41.976C140.423 41.6667 140.871 41.512 141.361 41.512C141.649 41.512 141.873 41.5333 142.033 41.576V42.856C141.873 42.824 141.644 42.808 141.345 42.808C140.652 42.808 140.119 43.0853 139.745 43.64C139.383 44.1947 139.201 44.904 139.201 45.768V49H137.809ZM149.916 44.888C149.916 45.0907 149.9 45.368 149.868 45.72H144.156C144.167 46.424 144.38 46.9787 144.796 47.384C145.212 47.7787 145.772 47.976 146.476 47.976C147.457 47.976 148.108 47.6133 148.428 46.888H149.82C149.692 47.5707 149.319 48.1253 148.7 48.552C148.081 48.9787 147.34 49.192 146.476 49.192C145.345 49.192 144.444 48.8453 143.772 48.152C143.111 47.448 142.78 46.4987 142.78 45.304C142.78 44.1307 143.111 43.192 143.772 42.488C144.433 41.784 145.313 41.432 146.412 41.432C147.457 41.432 148.3 41.752 148.94 42.392C149.591 43.032 149.916 43.864 149.916 44.888ZM144.156 44.648H148.54C148.54 43.9973 148.348 43.4853 147.964 43.112C147.591 42.7387 147.068 42.552 146.396 42.552C145.735 42.552 145.201 42.744 144.796 43.128C144.401 43.512 144.188 44.0187 144.156 44.648ZM154.881 49.192C153.761 49.192 152.871 48.84 152.209 48.136C151.548 47.4213 151.217 46.4827 151.217 45.32C151.217 44.1573 151.548 43.224 152.209 42.52C152.871 41.8053 153.761 41.448 154.881 41.448C155.873 41.448 156.673 41.6987 157.281 42.2C157.889 42.6907 158.236 43.352 158.321 44.184H156.929C156.737 43.192 156.055 42.696 154.881 42.696C154.167 42.696 153.607 42.9307 153.201 43.4C152.796 43.8587 152.593 44.4987 152.593 45.32C152.593 46.1413 152.796 46.7867 153.201 47.256C153.607 47.7147 154.167 47.944 154.881 47.944C156.044 47.944 156.727 47.464 156.929 46.504H158.321C158.236 47.3253 157.889 47.9813 157.281 48.472C156.673 48.952 155.873 49.192 154.881 49.192ZM163.464 49.192C162.29 49.192 161.357 48.824 160.664 48.088C159.97 47.3413 159.624 46.4133 159.624 45.304C159.624 44.1947 159.97 43.272 160.664 42.536C161.357 41.8 162.29 41.432 163.464 41.432C164.626 41.432 165.554 41.8053 166.248 42.552C166.952 43.288 167.304 44.2053 167.304 45.304C167.304 46.4133 166.952 47.3413 166.248 48.088C165.554 48.824 164.626 49.192 163.464 49.192ZM161.656 47.208C162.104 47.6987 162.706 47.944 163.464 47.944C164.221 47.944 164.818 47.6987 165.256 47.208C165.693 46.7067 165.912 46.072 165.912 45.304C165.912 44.5467 165.693 43.9227 165.256 43.432C164.818 42.9307 164.221 42.68 163.464 42.68C162.706 42.68 162.104 42.9307 161.656 43.432C161.218 43.9227 161 44.552 161 45.32C161 46.0773 161.218 46.7067 161.656 47.208ZM169.106 49V41.624H170.498V43.304C170.637 42.7173 170.909 42.2747 171.314 41.976C171.72 41.6667 172.168 41.512 172.658 41.512C172.946 41.512 173.17 41.5333 173.33 41.576V42.856C173.17 42.824 172.941 42.808 172.642 42.808C171.949 42.808 171.416 43.0853 171.042 43.64C170.68 44.1947 170.498 44.904 170.498 45.768V49H169.106ZM180.239 37.8H181.631V49H180.255V47.704C180.02 48.152 179.663 48.5147 179.183 48.792C178.703 49.0587 178.186 49.192 177.631 49.192C176.49 49.192 175.594 48.8293 174.943 48.104C174.303 47.3787 173.983 46.4507 173.983 45.32C173.983 44.2 174.314 43.272 174.975 42.536C175.647 41.8 176.543 41.432 177.663 41.432C178.239 41.432 178.756 41.5653 179.215 41.832C179.674 42.0987 180.02 42.4613 180.255 42.92V42.152H180.239V37.8ZM177.823 47.944C178.602 47.944 179.21 47.6933 179.647 47.192C180.095 46.68 180.319 46.056 180.319 45.32C180.319 44.5733 180.095 43.9493 179.647 43.448C179.21 42.936 178.602 42.68 177.823 42.68C177.076 42.68 176.479 42.9307 176.031 43.432C175.583 43.9227 175.359 44.552 175.359 45.32C175.359 46.088 175.583 46.7173 176.031 47.208C176.479 47.6987 177.076 47.944 177.823 47.944ZM193.355 41.624H194.747V49.144C194.747 50.3067 194.411 51.192 193.739 51.8C193.142 52.3333 192.336 52.6 191.323 52.6C190.256 52.6 189.424 52.344 188.827 51.832C188.283 51.3733 188.006 50.7387 187.995 49.928H189.403C189.456 50.9307 190.091 51.432 191.307 51.432C192.672 51.432 193.355 50.6373 193.355 49.048V47.672C192.864 48.6853 192.011 49.192 190.795 49.192C189.867 49.192 189.168 48.9093 188.699 48.344C188.23 47.768 187.995 46.9947 187.995 46.024V41.624H189.387V45.736C189.387 46.4507 189.526 47 189.803 47.384C190.091 47.7573 190.576 47.944 191.259 47.944C191.931 47.944 192.448 47.704 192.811 47.224C193.174 46.7333 193.355 46.1307 193.355 45.416V41.624ZM200.401 49.192C199.228 49.192 198.294 48.824 197.601 48.088C196.908 47.3413 196.561 46.4133 196.561 45.304C196.561 44.1947 196.908 43.272 197.601 42.536C198.294 41.8 199.228 41.432 200.401 41.432C201.564 41.432 202.492 41.8053 203.185 42.552C203.889 43.288 204.241 44.2053 204.241 45.304C204.241 46.4133 203.889 47.3413 203.185 48.088C202.492 48.824 201.564 49.192 200.401 49.192ZM198.593 47.208C199.041 47.6987 199.644 47.944 200.401 47.944C201.158 47.944 201.756 47.6987 202.193 47.208C202.63 46.7067 202.849 46.072 202.849 45.304C202.849 44.5467 202.63 43.9227 202.193 43.432C201.756 42.9307 201.158 42.68 200.401 42.68C199.644 42.68 199.041 42.9307 198.593 43.432C198.156 43.9227 197.937 44.552 197.937 45.32C197.937 46.0773 198.156 46.7067 198.593 47.208ZM208.764 49.192C207.91 49.192 207.228 48.936 206.716 48.424C206.214 47.9013 205.964 47.1493 205.964 46.168V41.624H207.356V45.832C207.356 47.272 207.953 47.992 209.148 47.992C209.852 47.992 210.374 47.768 210.716 47.32C211.068 46.8613 211.244 46.3067 211.244 45.656V41.624H212.636V49H211.244V47.656C211.041 48.1253 210.721 48.4987 210.284 48.776C209.857 49.0533 209.35 49.192 208.764 49.192ZM215.028 49V41.624H216.42V43.304C216.559 42.7173 216.831 42.2747 217.236 41.976C217.641 41.6667 218.089 41.512 218.58 41.512C218.868 41.512 219.092 41.5333 219.252 41.576V42.856C219.092 42.824 218.863 42.808 218.564 42.808C217.871 42.808 217.337 43.0853 216.964 43.64C216.601 44.1947 216.42 44.904 216.42 45.768V49H215.028ZM50.296 65.432C51.352 65.432 52.2107 65.7947 52.872 66.52C53.5333 67.2347 53.864 68.168 53.864 69.32C53.864 70.4507 53.5227 71.3787 52.84 72.104C52.1573 72.8293 51.2827 73.192 50.216 73.192C49.6507 73.192 49.128 73.0587 48.648 72.792C48.1787 72.5253 47.8267 72.1627 47.592 71.704V73H46.2V61.8H47.592V66.92C47.8267 66.4613 48.184 66.0987 48.664 65.832C49.1547 65.5653 49.6987 65.432 50.296 65.432ZM50.024 71.944C50.7387 71.944 51.3253 71.6987 51.784 71.208C52.2427 70.7173 52.472 70.088 52.472 69.32C52.472 68.552 52.2427 67.9227 51.784 67.432C51.3253 66.9307 50.7387 66.68 50.024 66.68C49.288 66.68 48.6853 66.9253 48.216 67.416C47.7573 67.9067 47.528 68.5413 47.528 69.32C47.528 70.088 47.7573 70.7173 48.216 71.208C48.6853 71.6987 49.288 71.944 50.024 71.944ZM55.6531 73V61.8H57.0451V73H55.6531ZM62.698 73.192C61.5247 73.192 60.5913 72.824 59.898 72.088C59.2047 71.3413 58.858 70.4133 58.858 69.304C58.858 68.1947 59.2047 67.272 59.898 66.536C60.5913 65.8 61.5247 65.432 62.698 65.432C63.8607 65.432 64.7887 65.8053 65.482 66.552C66.186 67.288 66.538 68.2053 66.538 69.304C66.538 70.4133 66.186 71.3413 65.482 72.088C64.7887 72.824 63.8607 73.192 62.698 73.192ZM60.89 71.208C61.338 71.6987 61.9407 71.944 62.698 71.944C63.4553 71.944 64.0527 71.6987 64.49 71.208C64.9273 70.7067 65.146 70.072 65.146 69.304C65.146 68.5467 64.9273 67.9227 64.49 67.432C64.0527 66.9307 63.4553 66.68 62.698 66.68C61.9407 66.68 61.338 66.9307 60.89 67.432C60.4527 67.9227 60.234 68.552 60.234 69.32C60.234 70.0773 60.4527 70.7067 60.89 71.208ZM71.6824 73.192C70.509 73.192 69.5757 72.824 68.8824 72.088C68.189 71.3413 67.8424 70.4133 67.8424 69.304C67.8424 68.1947 68.189 67.272 68.8824 66.536C69.5757 65.8 70.509 65.432 71.6824 65.432C72.845 65.432 73.773 65.8053 74.4664 66.552C75.1704 67.288 75.5224 68.2053 75.5224 69.304C75.5224 70.4133 75.1704 71.3413 74.4664 72.088C73.773 72.824 72.845 73.192 71.6824 73.192ZM69.8744 71.208C70.3224 71.6987 70.925 71.944 71.6824 71.944C72.4397 71.944 73.037 71.6987 73.4744 71.208C73.9117 70.7067 74.1304 70.072 74.1304 69.304C74.1304 68.5467 73.9117 67.9227 73.4744 67.432C73.037 66.9307 72.4397 66.68 71.6824 66.68C70.925 66.68 70.3224 66.9307 69.8744 67.432C69.437 67.9227 69.2184 68.552 69.2184 69.32C69.2184 70.0773 69.437 70.7067 69.8744 71.208ZM83.114 61.8H84.506V73H83.13V71.704C82.8953 72.152 82.538 72.5147 82.058 72.792C81.578 73.0587 81.0607 73.192 80.506 73.192C79.3647 73.192 78.4687 72.8293 77.818 72.104C77.178 71.3787 76.858 70.4507 76.858 69.32C76.858 68.2 77.1887 67.272 77.85 66.536C78.522 65.8 79.418 65.432 80.538 65.432C81.114 65.432 81.6313 65.5653 82.09 65.832C82.5487 66.0987 82.8953 66.4613 83.13 66.92V66.152H83.114V61.8ZM80.698 71.944C81.4767 71.944 82.0847 71.6933 82.522 71.192C82.97 70.68 83.194 70.056 83.194 69.32C83.194 68.5733 82.97 67.9493 82.522 67.448C82.0847 66.936 81.4767 66.68 80.698 66.68C79.9513 66.68 79.354 66.9307 78.906 67.432C78.458 67.9227 78.234 68.552 78.234 69.32C78.234 70.088 78.458 70.7173 78.906 71.208C79.354 71.6987 79.9513 71.944 80.698 71.944ZM95.046 65.432C96.102 65.432 96.9607 65.7947 97.622 66.52C98.2833 67.2347 98.614 68.168 98.614 69.32C98.614 70.4507 98.2727 71.3787 97.59 72.104C96.9073 72.8293 96.0327 73.192 94.966 73.192C94.4007 73.192 93.878 73.0587 93.398 72.792C92.9287 72.5253 92.5767 72.1627 92.342 71.704V76.408H90.95V65.624H92.342V66.92C92.5767 66.4613 92.934 66.0987 93.414 65.832C93.9047 65.5653 94.4487 65.432 95.046 65.432ZM94.774 71.944C95.4887 71.944 96.0753 71.6987 96.534 71.208C96.9927 70.7173 97.222 70.088 97.222 69.32C97.222 68.552 96.9927 67.9227 96.534 67.432C96.0753 66.9307 95.4887 66.68 94.774 66.68C94.038 66.68 93.4353 66.9253 92.966 67.416C92.5073 67.9067 92.278 68.5413 92.278 69.32C92.278 70.088 92.5073 70.7173 92.966 71.208C93.4353 71.6987 94.038 71.944 94.774 71.944ZM100.403 73V65.624H101.795V67.304C101.934 66.7173 102.206 66.2747 102.611 65.976C103.016 65.6667 103.464 65.512 103.955 65.512C104.243 65.512 104.467 65.5333 104.627 65.576V66.856C104.467 66.824 104.238 66.808 103.939 66.808C103.246 66.808 102.712 67.0853 102.339 67.64C101.976 68.1947 101.795 68.904 101.795 69.768V73H100.403ZM112.51 68.888C112.51 69.0907 112.494 69.368 112.462 69.72H106.75C106.76 70.424 106.974 70.9787 107.39 71.384C107.806 71.7787 108.366 71.976 109.07 71.976C110.051 71.976 110.702 71.6133 111.022 70.888H112.414C112.286 71.5707 111.912 72.1253 111.294 72.552C110.675 72.9787 109.934 73.192 109.07 73.192C107.939 73.192 107.038 72.8453 106.366 72.152C105.704 71.448 105.374 70.4987 105.374 69.304C105.374 68.1307 105.704 67.192 106.366 66.488C107.027 65.784 107.907 65.432 109.006 65.432C110.051 65.432 110.894 65.752 111.534 66.392C112.184 67.032 112.51 67.864 112.51 68.888ZM106.75 68.648H111.134C111.134 67.9973 110.942 67.4853 110.558 67.112C110.184 66.7387 109.662 66.552 108.99 66.552C108.328 66.552 107.795 66.744 107.39 67.128C106.995 67.512 106.782 68.0187 106.75 68.648ZM116.789 73.192C115.861 73.192 115.115 72.9627 114.549 72.504C113.995 72.0347 113.717 71.464 113.717 70.792H115.093C115.093 71.1653 115.253 71.4747 115.573 71.72C115.893 71.9547 116.32 72.072 116.853 72.072C117.269 72.072 117.6 71.976 117.845 71.784C118.091 71.592 118.213 71.3307 118.213 71C118.213 70.4773 117.973 70.1573 117.493 70.04L115.525 69.528C114.469 69.24 113.941 68.5787 113.941 67.544C113.941 66.936 114.197 66.4347 114.709 66.04C115.221 65.6347 115.888 65.432 116.709 65.432C117.605 65.432 118.299 65.64 118.789 66.056C119.291 66.4613 119.541 66.9947 119.541 67.656H118.165C118.165 67.304 118.032 67.0267 117.765 66.824C117.499 66.6107 117.125 66.504 116.645 66.504C116.261 66.504 115.941 66.5947 115.685 66.776C115.44 66.9467 115.317 67.1813 115.317 67.48C115.317 67.9813 115.589 68.296 116.133 68.424L117.973 68.936C118.496 69.0747 118.901 69.32 119.189 69.672C119.477 70.024 119.621 70.424 119.621 70.872C119.621 71.576 119.371 72.1413 118.869 72.568C118.368 72.984 117.675 73.192 116.789 73.192ZM123.993 73.192C123.065 73.192 122.318 72.9627 121.753 72.504C121.198 72.0347 120.921 71.464 120.921 70.792H122.297C122.297 71.1653 122.457 71.4747 122.777 71.72C123.097 71.9547 123.523 72.072 124.057 72.072C124.473 72.072 124.803 71.976 125.049 71.784C125.294 71.592 125.417 71.3307 125.417 71C125.417 70.4773 125.177 70.1573 124.697 70.04L122.729 69.528C121.673 69.24 121.145 68.5787 121.145 67.544C121.145 66.936 121.401 66.4347 121.913 66.04C122.425 65.6347 123.091 65.432 123.913 65.432C124.809 65.432 125.502 65.64 125.993 66.056C126.494 66.4613 126.745 66.9947 126.745 67.656H125.369C125.369 67.304 125.235 67.0267 124.969 66.824C124.702 66.6107 124.329 66.504 123.849 66.504C123.465 66.504 123.145 66.5947 122.889 66.776C122.643 66.9467 122.521 67.1813 122.521 67.48C122.521 67.9813 122.793 68.296 123.337 68.424L125.177 68.936C125.699 69.0747 126.105 69.32 126.393 69.672C126.681 70.024 126.825 70.424 126.825 70.872C126.825 71.576 126.574 72.1413 126.073 72.568C125.571 72.984 124.878 73.192 123.993 73.192ZM131.436 73.192C130.582 73.192 129.9 72.936 129.388 72.424C128.886 71.9013 128.636 71.1493 128.636 70.168V65.624H130.028V69.832C130.028 71.272 130.625 71.992 131.82 71.992C132.524 71.992 133.046 71.768 133.388 71.32C133.74 70.8613 133.916 70.3067 133.916 69.656V65.624H135.308V73H133.916V71.656C133.713 72.1253 133.393 72.4987 132.956 72.776C132.529 73.0533 132.022 73.192 131.436 73.192ZM137.7 73V65.624H139.092V67.304C139.231 66.7173 139.503 66.2747 139.908 65.976C140.313 65.6667 140.761 65.512 141.252 65.512C141.54 65.512 141.764 65.5333 141.924 65.576V66.856C141.764 66.824 141.535 66.808 141.236 66.808C140.543 66.808 140.009 67.0853 139.636 67.64C139.273 68.1947 139.092 68.904 139.092 69.768V73H137.7ZM149.807 68.888C149.807 69.0907 149.791 69.368 149.759 69.72H144.047C144.057 70.424 144.271 70.9787 144.687 71.384C145.103 71.7787 145.663 71.976 146.367 71.976C147.348 71.976 147.999 71.6133 148.319 70.888H149.711C149.583 71.5707 149.209 72.1253 148.591 72.552C147.972 72.9787 147.231 73.192 146.367 73.192C145.236 73.192 144.335 72.8453 143.663 72.152C143.001 71.448 142.671 70.4987 142.671 69.304C142.671 68.1307 143.001 67.192 143.663 66.488C144.324 65.784 145.204 65.432 146.303 65.432C147.348 65.432 148.191 65.752 148.831 66.392C149.481 67.032 149.807 67.864 149.807 68.888ZM144.047 68.648H148.431C148.431 67.9973 148.239 67.4853 147.855 67.112C147.481 66.7387 146.959 66.552 146.286 66.552C145.625 66.552 145.092 66.744 144.687 67.128C144.292 67.512 144.079 68.0187 144.047 68.648Z" fill="#1D1445"/>
<path d="M48.388 103L45.042 93.2H46.386L48.892 100.9L51.23 93.2H52.196L54.52 100.9L57.04 93.2H58.384L55.024 103H54.086L51.706 95.412L49.34 103H48.388ZM64.3678 99.402C64.3678 99.5793 64.3538 99.822 64.3258 100.13H59.3278C59.3371 100.746 59.5238 101.231 59.8878 101.586C60.2518 101.931 60.7418 102.104 61.3578 102.104C62.2165 102.104 62.7858 101.787 63.0658 101.152H64.2838C64.1718 101.749 63.8451 102.235 63.3038 102.608C62.7625 102.981 62.1138 103.168 61.3578 103.168C60.3685 103.168 59.5798 102.865 58.9918 102.258C58.4131 101.642 58.1238 100.811 58.1238 99.766C58.1238 98.7393 58.4131 97.918 58.9918 97.302C59.5705 96.686 60.3405 96.378 61.3018 96.378C62.2165 96.378 62.9538 96.658 63.5138 97.218C64.0831 97.778 64.3678 98.506 64.3678 99.402ZM59.3278 99.192H63.1638C63.1638 98.6227 62.9958 98.1747 62.6598 97.848C62.3331 97.5213 61.8758 97.358 61.2878 97.358C60.7091 97.358 60.2425 97.526 59.8878 97.862C59.5425 98.198 59.3558 98.6413 59.3278 99.192ZM71.7506 99.402C71.7506 99.5793 71.7366 99.822 71.7086 100.13H66.7106C66.7199 100.746 66.9066 101.231 67.2706 101.586C67.6346 101.931 68.1246 102.104 68.7406 102.104C69.5993 102.104 70.1686 101.787 70.4486 101.152H71.6666C71.5546 101.749 71.2279 102.235 70.6866 102.608C70.1453 102.981 69.4966 103.168 68.7406 103.168C67.7513 103.168 66.9626 102.865 66.3746 102.258C65.7959 101.642 65.5066 100.811 65.5066 99.766C65.5066 98.7393 65.7959 97.918 66.3746 97.302C66.9533 96.686 67.7233 96.378 68.6846 96.378C69.5993 96.378 70.3366 96.658 70.8966 97.218C71.4659 97.778 71.7506 98.506 71.7506 99.402ZM66.7106 99.192H70.5466C70.5466 98.6227 70.3786 98.1747 70.0426 97.848C69.7159 97.5213 69.2586 97.358 68.6706 97.358C68.0919 97.358 67.6253 97.526 67.2706 97.862C66.9253 98.198 66.7386 98.6413 66.7106 99.192ZM78.9674 96.546L75.8314 99.668L78.9674 103H77.3574L74.5434 99.962V103H73.3254V93.2H74.5434V99.486L77.3994 96.546H78.9674ZM85.4498 99.402C85.4498 99.5793 85.4358 99.822 85.4078 100.13H80.4098C80.4192 100.746 80.6058 101.231 80.9698 101.586C81.3338 101.931 81.8238 102.104 82.4398 102.104C83.2985 102.104 83.8678 101.787 84.1478 101.152H85.3658C85.2538 101.749 84.9272 102.235 84.3858 102.608C83.8445 102.981 83.1958 103.168 82.4398 103.168C81.4505 103.168 80.6618 102.865 80.0738 102.258C79.4952 101.642 79.2058 100.811 79.2058 99.766C79.2058 98.7393 79.4952 97.918 80.0738 97.302C80.6525 96.686 81.4225 96.378 82.3838 96.378C83.2985 96.378 84.0358 96.658 84.5958 97.218C85.1652 97.778 85.4498 98.506 85.4498 99.402ZM80.4098 99.192H84.2458C84.2458 98.6227 84.0778 98.1747 83.7418 97.848C83.4152 97.5213 82.9578 97.358 82.3698 97.358C81.7912 97.358 81.3245 97.526 80.9698 97.862C80.6245 98.198 80.4378 98.6413 80.4098 99.192ZM87.0246 103V96.546H88.2426V97.736C88.4199 97.316 88.6999 96.9847 89.0826 96.742C89.4746 96.4993 89.9459 96.378 90.4966 96.378C92.1019 96.378 92.9046 97.26 92.9046 99.024V103H91.6866V99.556C91.6866 98.828 91.5559 98.2913 91.2946 97.946C91.0426 97.6007 90.6319 97.428 90.0626 97.428C89.4746 97.428 89.0219 97.6193 88.7046 98.002C88.3966 98.3847 88.2426 98.912 88.2426 99.584V103H87.0246ZM99.8966 93.2H101.115V103H99.9106V101.866C99.7053 102.258 99.3926 102.575 98.9726 102.818C98.5526 103.051 98.1 103.168 97.6146 103.168C96.616 103.168 95.832 102.851 95.2626 102.216C94.7026 101.581 94.4226 100.769 94.4226 99.78C94.4226 98.8 94.712 97.988 95.2906 97.344C95.8786 96.7 96.6626 96.378 97.6426 96.378C98.1466 96.378 98.5993 96.4947 99.0006 96.728C99.402 96.9613 99.7053 97.2787 99.9106 97.68V97.008H99.8966V93.2ZM97.7826 102.076C98.464 102.076 98.996 101.857 99.3786 101.418C99.7706 100.97 99.9666 100.424 99.9666 99.78C99.9666 99.1267 99.7706 98.5807 99.3786 98.142C98.996 97.694 98.464 97.47 97.7826 97.47C97.1293 97.47 96.6066 97.6893 96.2146 98.128C95.8226 98.5573 95.6266 99.108 95.6266 99.78C95.6266 100.452 95.8226 101.003 96.2146 101.432C96.6066 101.861 97.1293 102.076 97.7826 102.076ZM105.382 103.168C104.57 103.168 103.917 102.967 103.422 102.566C102.937 102.155 102.694 101.656 102.694 101.068H103.898C103.898 101.395 104.038 101.665 104.318 101.88C104.598 102.085 104.971 102.188 105.438 102.188C105.802 102.188 106.091 102.104 106.306 101.936C106.521 101.768 106.628 101.539 106.628 101.25C106.628 100.793 106.418 100.513 105.998 100.41L104.276 99.962C103.352 99.71 102.89 99.1313 102.89 98.226C102.89 97.694 103.114 97.2553 103.562 96.91C104.01 96.5553 104.593 96.378 105.312 96.378C106.096 96.378 106.703 96.56 107.132 96.924C107.571 97.2787 107.79 97.7453 107.79 98.324H106.586C106.586 98.016 106.469 97.7733 106.236 97.596C106.003 97.4093 105.676 97.316 105.256 97.316C104.92 97.316 104.64 97.3953 104.416 97.554C104.201 97.7033 104.094 97.9087 104.094 98.17C104.094 98.6087 104.332 98.884 104.808 98.996L106.418 99.444C106.875 99.5653 107.23 99.78 107.482 100.088C107.734 100.396 107.86 100.746 107.86 101.138C107.86 101.754 107.641 102.249 107.202 102.622C106.763 102.986 106.157 103.168 105.382 103.168Z" fill="#A8A8A8"/>
<circle cx="121" cy="98" r="3" fill="#A8A8A8"/>
<path d="M134.12 103V93.2H139.692V94.348H135.394V97.554H139.692V98.702H135.394V101.852H139.692V103H134.12ZM143.472 103L140.63 96.546H141.932L143.962 101.376L146.006 96.546H147.308L144.466 103H143.472ZM153.858 99.402C153.858 99.5793 153.844 99.822 153.816 100.13H148.818C148.827 100.746 149.014 101.231 149.378 101.586C149.742 101.931 150.232 102.104 150.848 102.104C151.707 102.104 152.276 101.787 152.556 101.152H153.774C153.662 101.749 153.335 102.235 152.794 102.608C152.253 102.981 151.604 103.168 150.848 103.168C149.859 103.168 149.07 102.865 148.482 102.258C147.903 101.642 147.614 100.811 147.614 99.766C147.614 98.7393 147.903 97.918 148.482 97.302C149.061 96.686 149.831 96.378 150.792 96.378C151.707 96.378 152.444 96.658 153.004 97.218C153.573 97.778 153.858 98.506 153.858 99.402ZM148.818 99.192H152.654C152.654 98.6227 152.486 98.1747 152.15 97.848C151.823 97.5213 151.366 97.358 150.778 97.358C150.199 97.358 149.733 97.526 149.378 97.862C149.033 98.198 148.846 98.6413 148.818 99.192ZM155.433 103V96.546H156.651V98.016C156.772 97.5027 157.01 97.1153 157.365 96.854C157.719 96.5833 158.111 96.448 158.541 96.448C158.793 96.448 158.989 96.4667 159.129 96.504V97.624C158.989 97.596 158.788 97.582 158.527 97.582C157.92 97.582 157.453 97.8247 157.127 98.31C156.809 98.7953 156.651 99.416 156.651 100.172V103H155.433ZM165.111 96.546H166.329V103.126C166.329 104.143 166.035 104.918 165.447 105.45C164.925 105.917 164.22 106.15 163.333 106.15C162.4 106.15 161.672 105.926 161.149 105.478C160.673 105.077 160.431 104.521 160.421 103.812H161.653C161.7 104.689 162.255 105.128 163.319 105.128C164.514 105.128 165.111 104.433 165.111 103.042V101.838C164.682 102.725 163.935 103.168 162.871 103.168C162.059 103.168 161.448 102.921 161.037 102.426C160.627 101.922 160.421 101.245 160.421 100.396V96.546H161.639V100.144C161.639 100.769 161.761 101.25 162.003 101.586C162.255 101.913 162.68 102.076 163.277 102.076C163.865 102.076 164.318 101.866 164.635 101.446C164.953 101.017 165.111 100.489 165.111 99.864V96.546ZM173.418 103V96.182H171.43V95.104C172.26 95.104 172.816 94.9873 173.096 94.754C173.376 94.5207 173.516 94.096 173.516 93.48H174.678V103H173.418ZM176.986 103C176.986 101.945 177.168 101.091 177.532 100.438C177.896 99.7847 178.503 99.234 179.352 98.786L180.808 98.03C181.685 97.5727 182.124 96.91 182.124 96.042C182.124 95.566 181.97 95.1833 181.662 94.894C181.354 94.5953 180.953 94.446 180.458 94.446C179.842 94.446 179.361 94.6373 179.016 95.02C178.68 95.4027 178.512 95.944 178.512 96.644H177.196C177.196 95.636 177.49 94.8333 178.078 94.236C178.675 93.6293 179.469 93.326 180.458 93.326C181.382 93.326 182.115 93.564 182.656 94.04C183.197 94.516 183.468 95.1647 183.468 95.986C183.468 97.2273 182.852 98.184 181.62 98.856L180.164 99.626C179.576 99.9433 179.165 100.261 178.932 100.578C178.699 100.886 178.549 101.311 178.484 101.852H183.482V103H176.986ZM192.292 96.378C193.897 96.378 194.7 97.26 194.7 99.024V103H193.482V99.556C193.482 98.828 193.351 98.2913 193.09 97.946C192.838 97.6007 192.427 97.428 191.858 97.428C191.27 97.428 190.817 97.6193 190.5 98.002C190.192 98.3847 190.038 98.912 190.038 99.584V103H188.82V93.2H190.038V97.736C190.215 97.316 190.495 96.9847 190.878 96.742C191.27 96.4993 191.741 96.378 192.292 96.378ZM196.736 103V96.546H197.954V98.016C198.075 97.5027 198.313 97.1153 198.668 96.854C199.022 96.5833 199.414 96.448 199.844 96.448C200.096 96.448 200.292 96.4667 200.432 96.504V97.624C200.292 97.596 200.091 97.582 199.83 97.582C199.223 97.582 198.756 97.8247 198.43 98.31C198.112 98.7953 197.954 99.416 197.954 100.172V103H196.736ZM203.773 103.168C202.961 103.168 202.307 102.967 201.813 102.566C201.327 102.155 201.085 101.656 201.085 101.068H202.289C202.289 101.395 202.429 101.665 202.709 101.88C202.989 102.085 203.362 102.188 203.829 102.188C204.193 102.188 204.482 102.104 204.697 101.936C204.911 101.768 205.019 101.539 205.019 101.25C205.019 100.793 204.809 100.513 204.389 100.41L202.667 99.962C201.743 99.71 201.281 99.1313 201.281 98.226C201.281 97.694 201.505 97.2553 201.953 96.91C202.401 96.5553 202.984 96.378 203.703 96.378C204.487 96.378 205.093 96.56 205.523 96.924C205.961 97.2787 206.181 97.7453 206.181 98.324H204.977C204.977 98.016 204.86 97.7733 204.627 97.596C204.393 97.4093 204.067 97.316 203.647 97.316C203.311 97.316 203.031 97.3953 202.807 97.554C202.592 97.7033 202.485 97.9087 202.485 98.17C202.485 98.6087 202.723 98.884 203.199 98.996L204.809 99.444C205.266 99.5653 205.621 99.78 205.873 100.088C206.125 100.396 206.251 100.746 206.251 101.138C206.251 101.754 206.031 102.249 205.593 102.622C205.154 102.986 204.547 103.168 203.773 103.168Z" fill="#A8A8A8"/>
<path d="M20 12H260V16H20V12ZM260 127H20H260ZM20 127V14V127ZM260 14V127V14Z" fill="url(#paint0_linear_1626_3606)" mask="url(#path-1-inside-1_1626_3606)"/>
</g>
<defs>
<filter id="filter0_d_1626_3606" x="0" y="0" width="280" height="153" filterUnits="userSpaceOnUse" color-interpolation-filters="sRGB">
<feFlood flood-opacity="0" result="BackgroundImageFix"/>
<feColorMatrix in="SourceAlpha" type="matrix" values="0 0 0 0 0 0 0 0 0 0 0 0 0 0 0 0 0 0 127 0" result="hardAlpha"/>
<feOffset dy="6"/>
<feGaussianBlur stdDeviation="10"/>
<feComposite in2="hardAlpha" operator="out"/>
<feColorMatrix type="matrix" values="0 0 0 0 0 0 0 0 0 0 0 0 0 0 0 0 0 0 0.08 0"/>
<feBlend mode="normal" in2="BackgroundImageFix" result="effect1_dropShadow_1626_3606"/>
<feBlend mode="normal" in="SourceGraphic" in2="effect1_dropShadow_1626_3606" result="shape"/>
</filter>
<linearGradient id="paint0_linear_1626_3606" x1="20" y1="14" x2="260" y2="14" gradientUnits="userSpaceOnUse">
<stop stop-color="#3715D7"/>
<stop offset="1" stop-color="#9747FF"/>
</linearGradient>
</defs>
</svg>
